<?xml version="1.0" encoding="UTF-8" standalone="no"?>
<!DOCTYPE svg PUBLIC "-//W3C//DTD SVG 1.1//EN"
 "http://www.w3.org/Graphics/SVG/1.1/DTD/svg11.dtd">
<!-- Generated by graphviz version 2.43.0 (0)
 -->
<!-- Title: G Pages: 1 -->
<svg width="611pt" height="552pt"
 viewBox="0.00 0.00 611.04 551.95" xmlns="http://www.w3.org/2000/svg" xmlns:xlink="http://www.w3.org/1999/xlink">
<g id="graph0" class="graph" transform="scale(1 1) rotate(0) translate(4 547.95)">
<title>G</title><style>.edge>path:hover{stroke-width:8}</style>
<polygon fill="white" stroke="transparent" points="-4,4 -4,-547.95 607.04,-547.95 607.04,4 -4,4"/>
<!-- torchdiffeq -->
<g id="node1" class="node">
<title>torchdiffeq</title><style>.edge>path:hover{stroke-width:8}</style>
<polygon fill="blue" stroke="black" points="290.22,-36 221.22,-36 221.22,0 290.22,0 290.22,-36"/>
<text text-anchor="middle" x="255.72" y="-15.5" font-family="Helvetica,sans-Serif" font-size="10.00" fill="white">torchdiffeq</text>
</g>
<!-- torchdiffeq__impl -->
<g id="node2" class="node">
<title>torchdiffeq__impl</title><style>.edge>path:hover{stroke-width:8}</style>
<polygon fill="blue" stroke="black" points="259.72,-108 187.72,-108 187.72,-72 259.72,-72 259.72,-108"/>
<text text-anchor="middle" x="223.72" y="-93" font-family="Helvetica,sans-Serif" font-size="10.00" fill="white">torchdiffeq.</text>
<text text-anchor="middle" x="223.72" y="-82" font-family="Helvetica,sans-Serif" font-size="10.00" fill="white">_impl</text>
</g>
<!-- torchdiffeq__impl&#45;&gt;torchdiffeq -->
<g id="edge1" class="edge">
<title>torchdiffeq__impl&#45;&gt;torchdiffeq</title><style>.edge>path:hover{stroke-width:8}</style>
<path fill="none" stroke="black" d="M231.63,-71.7C235.27,-63.73 239.67,-54.1 243.71,-45.26"/>
<polygon fill="blue" stroke="black" points="246.92,-46.65 247.9,-36.1 240.56,-43.74 246.92,-46.65"/>
</g>
<!-- torchdiffeq__impl_adams -->
<g id="node3" class="node">
<title>torchdiffeq__impl_adams</title><style>.edge>path:hover{stroke-width:8}</style>
<ellipse fill="#b83d3d" stroke="black" cx="512.72" cy="-326.99" rx="50.82" ry="28.98"/>
<text text-anchor="middle" x="512.72" y="-335.49" font-family="Helvetica,sans-Serif" font-size="10.00" fill="#ffffff">torchdiffeq.</text>
<text text-anchor="middle" x="512.72" y="-324.49" font-family="Helvetica,sans-Serif" font-size="10.00" fill="#ffffff">_impl.</text>
<text text-anchor="middle" x="512.72" y="-313.49" font-family="Helvetica,sans-Serif" font-size="10.00" fill="#ffffff">adams</text>
</g>
<!-- torchdiffeq__impl_odeint -->
<g id="node10" class="node">
<title>torchdiffeq__impl_odeint</title><style>.edge>path:hover{stroke-width:8}</style>
<polygon fill="blue" stroke="black" points="323.72,-262 251.72,-262 251.72,-221 323.72,-221 323.72,-262"/>
<text text-anchor="middle" x="287.72" y="-250" font-family="Helvetica,sans-Serif" font-size="10.00" fill="white">torchdiffeq.</text>
<text text-anchor="middle" x="287.72" y="-239" font-family="Helvetica,sans-Serif" font-size="10.00" fill="white">_impl.</text>
<text text-anchor="middle" x="287.72" y="-228" font-family="Helvetica,sans-Serif" font-size="10.00" fill="white">odeint</text>
</g>
<!-- torchdiffeq__impl_adams&#45;&gt;torchdiffeq__impl_odeint -->
<g id="edge2" class="edge">
<title>torchdiffeq__impl_adams&#45;&gt;torchdiffeq__impl_odeint</title><style>.edge>path:hover{stroke-width:8}</style>
<path fill="none" stroke="black" d="M474.91,-307.57C467.61,-304.24 459.97,-300.9 452.72,-298 413.17,-282.18 367.16,-266.96 333.79,-256.47"/>
<polygon fill="#b83d3d" stroke="black" points="334.45,-253.01 323.86,-253.38 332.37,-259.69 334.45,-253.01"/>
</g>
<!-- torchdiffeq__impl_adjoint -->
<g id="node4" class="node">
<title>torchdiffeq__impl_adjoint</title><style>.edge>path:hover{stroke-width:8}</style>
<polygon fill="blue" stroke="black" points="259.72,-185 187.72,-185 187.72,-144 259.72,-144 259.72,-185"/>
<text text-anchor="middle" x="223.72" y="-173" font-family="Helvetica,sans-Serif" font-size="10.00" fill="white">torchdiffeq.</text>
<text text-anchor="middle" x="223.72" y="-162" font-family="Helvetica,sans-Serif" font-size="10.00" fill="white">_impl.</text>
<text text-anchor="middle" x="223.72" y="-151" font-family="Helvetica,sans-Serif" font-size="10.00" fill="white">adjoint</text>
</g>
<!-- torchdiffeq__impl_adjoint&#45;&gt;torchdiffeq__impl -->
<g id="edge3" class="edge">
<title>torchdiffeq__impl_adjoint&#45;&gt;torchdiffeq__impl</title><style>.edge>path:hover{stroke-width:8}</style>
<path fill="none" stroke="black" d="M223.72,-143.69C223.72,-135.91 223.72,-126.84 223.72,-118.45"/>
<polygon fill="blue" stroke="black" points="227.22,-118.32 223.72,-108.32 220.22,-118.32 227.22,-118.32"/>
</g>
<!-- torchdiffeq__impl_dopri5 -->
<g id="node5" class="node">
<title>torchdiffeq__impl_dopri5</title><style>.edge>path:hover{stroke-width:8}</style>
<ellipse fill="#a83838" stroke="black" cx="86.72" cy="-326.99" rx="50.82" ry="28.98"/>
<text text-anchor="middle" x="86.72" y="-335.49" font-family="Helvetica,sans-Serif" font-size="10.00" fill="#ffffff">torchdiffeq.</text>
<text text-anchor="middle" x="86.72" y="-324.49" font-family="Helvetica,sans-Serif" font-size="10.00" fill="#ffffff">_impl.</text>
<text text-anchor="middle" x="86.72" y="-313.49" font-family="Helvetica,sans-Serif" font-size="10.00" fill="#ffffff">dopri5</text>
</g>
<!-- torchdiffeq__impl_dopri5&#45;&gt;torchdiffeq__impl_odeint -->
<g id="edge4" class="edge">
<title>torchdiffeq__impl_dopri5&#45;&gt;torchdiffeq__impl_odeint</title><style>.edge>path:hover{stroke-width:8}</style>
<path fill="none" stroke="black" d="M124.97,-307.72C132.16,-304.41 139.64,-301.04 146.72,-298 178.28,-284.44 214.34,-270.27 242.09,-259.64"/>
<polygon fill="#a83838" stroke="black" points="243.44,-262.87 251.54,-256.04 240.94,-256.33 243.44,-262.87"/>
</g>
<!-- torchdiffeq__impl_fixed_adams -->
<g id="node6" class="node">
<title>torchdiffeq__impl_fixed_adams</title><style>.edge>path:hover{stroke-width:8}</style>
<polygon fill="blue" stroke="black" points="233.72,-347.49 155.72,-347.49 155.72,-306.49 233.72,-306.49 233.72,-347.49"/>
<text text-anchor="middle" x="194.72" y="-335.49" font-family="Helvetica,sans-Serif" font-size="10.00" fill="white">torchdiffeq.</text>
<text text-anchor="middle" x="194.72" y="-324.49" font-family="Helvetica,sans-Serif" font-size="10.00" fill="white">_impl.</text>
<text text-anchor="middle" x="194.72" y="-313.49" font-family="Helvetica,sans-Serif" font-size="10.00" fill="white">fixed_adams</text>
</g>
<!-- torchdiffeq__impl_fixed_adams&#45;&gt;torchdiffeq__impl_odeint -->
<g id="edge5" class="edge">
<title>torchdiffeq__impl_fixed_adams&#45;&gt;torchdiffeq__impl_odeint</title><style>.edge>path:hover{stroke-width:8}</style>
<path fill="none" stroke="black" d="M216.76,-306.21C229.15,-295.08 244.78,-281.04 258.22,-268.98"/>
<polygon fill="blue" stroke="black" points="260.73,-271.43 265.83,-262.14 256.05,-266.22 260.73,-271.43"/>
</g>
<!-- torchdiffeq__impl_fixed_grid -->
<g id="node7" class="node">
<title>torchdiffeq__impl_fixed_grid</title><style>.edge>path:hover{stroke-width:8}</style>
<polygon fill="blue" stroke="black" points="323.72,-347.49 251.72,-347.49 251.72,-306.49 323.72,-306.49 323.72,-347.49"/>
<text text-anchor="middle" x="287.72" y="-335.49" font-family="Helvetica,sans-Serif" font-size="10.00" fill="white">torchdiffeq.</text>
<text text-anchor="middle" x="287.72" y="-324.49" font-family="Helvetica,sans-Serif" font-size="10.00" fill="white">_impl.</text>
<text text-anchor="middle" x="287.72" y="-313.49" font-family="Helvetica,sans-Serif" font-size="10.00" fill="white">fixed_grid</text>
</g>
<!-- torchdiffeq__impl_fixed_grid&#45;&gt;torchdiffeq__impl_odeint -->
<g id="edge6" class="edge">
<title>torchdiffeq__impl_fixed_grid&#45;&gt;torchdiffeq__impl_odeint</title><style>.edge>path:hover{stroke-width:8}</style>
<path fill="none" stroke="black" d="M287.72,-306.21C287.72,-296.12 287.72,-283.64 287.72,-272.41"/>
<polygon fill="blue" stroke="black" points="291.22,-272.14 287.72,-262.14 284.22,-272.14 291.22,-272.14"/>
</g>
<!-- torchdiffeq__impl_interp -->
<g id="node8" class="node">
<title>torchdiffeq__impl_interp</title><style>.edge>path:hover{stroke-width:8}</style>
<ellipse fill="#c04040" stroke="black" cx="86.72" cy="-420.97" rx="50.82" ry="28.98"/>
<text text-anchor="middle" x="86.72" y="-429.47" font-family="Helvetica,sans-Serif" font-size="10.00" fill="#ffffff">torchdiffeq.</text>
<text text-anchor="middle" x="86.72" y="-418.47" font-family="Helvetica,sans-Serif" font-size="10.00" fill="#ffffff">_impl.</text>
<text text-anchor="middle" x="86.72" y="-407.47" font-family="Helvetica,sans-Serif" font-size="10.00" fill="#ffffff">interp</text>
</g>
<!-- torchdiffeq__impl_interp&#45;&gt;torchdiffeq__impl_dopri5 -->
<g id="edge7" class="edge">
<title>torchdiffeq__impl_interp&#45;&gt;torchdiffeq__impl_dopri5</title><style>.edge>path:hover{stroke-width:8}</style>
<path fill="none" stroke="black" d="M86.72,-391.88C86.72,-383.84 86.72,-374.94 86.72,-366.39"/>
<polygon fill="#c04040" stroke="black" points="90.22,-366.23 86.72,-356.23 83.22,-366.23 90.22,-366.23"/>
</g>
<!-- torchdiffeq__impl_misc -->
<g id="node9" class="node">
<title>torchdiffeq__impl_misc</title><style>.edge>path:hover{stroke-width:8}</style>
<ellipse fill="#f91010" stroke="black" cx="205.72" cy="-514.96" rx="50.82" ry="28.98"/>
<text text-anchor="middle" x="205.72" y="-523.46" font-family="Helvetica,sans-Serif" font-size="10.00" fill="#ffffff">torchdiffeq.</text>
<text text-anchor="middle" x="205.72" y="-512.46" font-family="Helvetica,sans-Serif" font-size="10.00" fill="#ffffff">_impl.</text>
<text text-anchor="middle" x="205.72" y="-501.46" font-family="Helvetica,sans-Serif" font-size="10.00" fill="#ffffff">misc</text>
</g>
<!-- torchdiffeq__impl_misc&#45;&gt;torchdiffeq__impl_adams -->
<g id="edge8" class="edge">
<title>torchdiffeq__impl_misc&#45;&gt;torchdiffeq__impl_adams</title><style>.edge>path:hover{stroke-width:8}</style>
<path fill="none" stroke="black" d="M591.72,-419.97C599.19,-393.67 578.74,-370.38 556.77,-353.81"/>
<polygon fill="#f91010" stroke="black" points="558.51,-350.75 548.34,-347.8 554.45,-356.45 558.51,-350.75"/>
</g>
<!-- torchdiffeq__impl_misc&#45;&gt;torchdiffeq__impl_adjoint -->
<g id="edge9" class="edge">
<title>torchdiffeq__impl_misc&#45;&gt;torchdiffeq__impl_adjoint</title><style>.edge>path:hover{stroke-width:8}</style>
<path fill="none" stroke="black" d="M154.98,-511.11C112.91,-505.75 55.51,-490.84 26.72,-449.97 -12.18,-394.75 -5.03,-357.61 26.72,-298 58.53,-238.27 130.57,-200.65 178.15,-181.35"/>
<polygon fill="#f91010" stroke="black" points="179.59,-184.55 187.61,-177.63 177.03,-178.03 179.59,-184.55"/>
</g>
<!-- torchdiffeq__impl_misc&#45;&gt;torchdiffeq__impl_dopri5 -->
<g id="edge10" class="edge">
<title>torchdiffeq__impl_misc&#45;&gt;torchdiffeq__impl_dopri5</title><style>.edge>path:hover{stroke-width:8}</style>
<path fill="none" stroke="black" d="M192.48,-486.63C184.07,-468.57 173.36,-444.21 165.72,-421.97"/>
<path fill="none" stroke="black" d="M165.72,-419.97C157.52,-396.15 139.73,-374.5 123.1,-358.2"/>
<polygon fill="#f91010" stroke="black" points="125.25,-355.42 115.58,-351.09 120.44,-360.51 125.25,-355.42"/>
</g>
<!-- torchdiffeq__impl_misc&#45;&gt;torchdiffeq__impl_fixed_adams -->
<g id="edge11" class="edge">
<title>torchdiffeq__impl_misc&#45;&gt;torchdiffeq__impl_fixed_adams</title><style>.edge>path:hover{stroke-width:8}</style>
<path fill="none" stroke="black" d="M165.72,-419.97C158.48,-398.94 166.57,-374.97 176.02,-356.77"/>
<polygon fill="#f91010" stroke="black" points="179.19,-358.26 181.01,-347.83 173.08,-354.85 179.19,-358.26"/>
</g>
<!-- torchdiffeq__impl_misc&#45;&gt;torchdiffeq__impl_interp -->
<g id="edge12" class="edge">
<title>torchdiffeq__impl_misc&#45;&gt;torchdiffeq__impl_interp</title><style>.edge>path:hover{stroke-width:8}</style>
<path fill="none" stroke="black" d="M176.3,-491.22C160.57,-479.06 141.02,-463.95 124.21,-450.96"/>
<polygon fill="#f91010" stroke="black" points="126.26,-448.12 116.21,-444.77 121.98,-453.65 126.26,-448.12"/>
</g>
<!-- torchdiffeq__impl_misc&#45;&gt;torchdiffeq__impl_odeint -->
<g id="edge13" class="edge">
<title>torchdiffeq__impl_misc&#45;&gt;torchdiffeq__impl_odeint</title><style>.edge>path:hover{stroke-width:8}</style>
<path fill="none" stroke="black" d="M591.72,-419.97C606.71,-367.2 610.77,-337.52 572.72,-298 540.39,-264.43 406.08,-250.4 333.97,-245.2"/>
<polygon fill="#f91010" stroke="black" points="334.02,-241.69 323.8,-244.49 333.53,-248.67 334.02,-241.69"/>
</g>
<!-- torchdiffeq__impl_rk_common -->
<g id="node11" class="node">
<title>torchdiffeq__impl_rk_common</title><style>.edge>path:hover{stroke-width:8}</style>
<ellipse fill="#e61919" stroke="black" cx="245.72" cy="-420.97" rx="52.15" ry="28.98"/>
<text text-anchor="middle" x="245.72" y="-429.47" font-family="Helvetica,sans-Serif" font-size="10.00" fill="#ffffff">torchdiffeq.</text>
<text text-anchor="middle" x="245.72" y="-418.47" font-family="Helvetica,sans-Serif" font-size="10.00" fill="#ffffff">_impl.</text>
<text text-anchor="middle" x="245.72" y="-407.47" font-family="Helvetica,sans-Serif" font-size="10.00" fill="#ffffff">rk_common</text>
</g>
<!-- torchdiffeq__impl_misc&#45;&gt;torchdiffeq__impl_rk_common -->
<g id="edge14" class="edge">
<title>torchdiffeq__impl_misc&#45;&gt;torchdiffeq__impl_rk_common</title><style>.edge>path:hover{stroke-width:8}</style>
<path fill="none" stroke="black" d="M217.72,-486.36C221.51,-477.64 225.76,-467.86 229.78,-458.62"/>
<polygon fill="#f91010" stroke="black" points="233.08,-459.8 233.86,-449.24 226.66,-457.01 233.08,-459.8"/>
</g>
<!-- torchdiffeq__impl_solvers -->
<g id="node12" class="node">
<title>torchdiffeq__impl_solvers</title><style>.edge>path:hover{stroke-width:8}</style>
<ellipse fill="#f30c0c" stroke="black" cx="366.72" cy="-420.97" rx="50.82" ry="28.98"/>
<text text-anchor="middle" x="366.72" y="-429.47" font-family="Helvetica,sans-Serif" font-size="10.00" fill="#ffffff">torchdiffeq.</text>
<text text-anchor="middle" x="366.72" y="-418.47" font-family="Helvetica,sans-Serif" font-size="10.00" fill="#ffffff">_impl.</text>
<text text-anchor="middle" x="366.72" y="-407.47" font-family="Helvetica,sans-Serif" font-size="10.00" fill="#ffffff">solvers</text>
</g>
<!-- torchdiffeq__impl_misc&#45;&gt;torchdiffeq__impl_solvers -->
<g id="edge15" class="edge">
<title>torchdiffeq__impl_misc&#45;&gt;torchdiffeq__impl_solvers</title><style>.edge>path:hover{stroke-width:8}</style>
<path fill="none" stroke="black" d="M241.05,-493.77C265.06,-480.05 297,-461.8 322.67,-447.14"/>
<polygon fill="#f91010" stroke="black" points="324.52,-450.11 331.47,-442.11 321.05,-444.03 324.52,-450.11"/>
</g>
<!-- torchdiffeq__impl_tsit5 -->
<g id="node13" class="node">
<title>torchdiffeq__impl_tsit5</title><style>.edge>path:hover{stroke-width:8}</style>
<ellipse fill="#b03a3a" stroke="black" cx="392.72" cy="-326.99" rx="50.82" ry="28.98"/>
<text text-anchor="middle" x="392.72" y="-335.49" font-family="Helvetica,sans-Serif" font-size="10.00" fill="#ffffff">torchdiffeq.</text>
<text text-anchor="middle" x="392.72" y="-324.49" font-family="Helvetica,sans-Serif" font-size="10.00" fill="#ffffff">_impl.</text>
<text text-anchor="middle" x="392.72" y="-313.49" font-family="Helvetica,sans-Serif" font-size="10.00" fill="#ffffff">tsit5</text>
</g>
<!-- torchdiffeq__impl_misc&#45;&gt;torchdiffeq__impl_tsit5 -->
<g id="edge16" class="edge">
<title>torchdiffeq__impl_misc&#45;&gt;torchdiffeq__impl_tsit5</title><style>.edge>path:hover{stroke-width:8}</style>
<path fill="none" stroke="black" d="M256.35,-511.87C356.8,-506.33 573.27,-486.92 591.72,-421.97"/>
<path fill="none" stroke="black" d="M591.72,-419.97C610.3,-354.55 514.42,-384.58 452.72,-355.98 448.84,-354.19 444.83,-352.33 440.81,-350.45"/>
<polygon fill="#f91010" stroke="black" points="441.98,-347.14 431.43,-346.09 439.02,-353.48 441.98,-347.14"/>
</g>
<!-- torchdiffeq__impl_odeint&#45;&gt;torchdiffeq -->
<g id="edge17" class="edge">
<title>torchdiffeq__impl_odeint&#45;&gt;torchdiffeq</title><style>.edge>path:hover{stroke-width:8}</style>
<path fill="none" stroke="black" d="M287.72,-163.5C279.35,-122.82 277.89,-112.51 268.72,-72 266.8,-63.55 264.6,-54.38 262.56,-46.08"/>
<polygon fill="blue" stroke="black" points="265.9,-45.01 260.09,-36.15 259.1,-46.7 265.9,-45.01"/>
</g>
<!-- torchdiffeq__impl_odeint&#45;&gt;torchdiffeq__impl -->
<g id="edge18" class="edge">
<title>torchdiffeq__impl_odeint&#45;&gt;torchdiffeq__impl</title><style>.edge>path:hover{stroke-width:8}</style>
<path fill="none" stroke="black" d="M289.86,-220.86C291.01,-205.6 291.52,-183.99 287.72,-165.5"/>
<path fill="none" stroke="black" d="M287.72,-163.5C283.75,-144.21 269.98,-127.38 256.23,-114.8"/>
<polygon fill="blue" stroke="black" points="258.51,-112.15 248.65,-108.26 253.94,-117.45 258.51,-112.15"/>
</g>
<!-- torchdiffeq__impl_odeint&#45;&gt;torchdiffeq__impl_adjoint -->
<g id="edge19" class="edge">
<title>torchdiffeq__impl_odeint&#45;&gt;torchdiffeq__impl_adjoint</title><style>.edge>path:hover{stroke-width:8}</style>
<path fill="none" stroke="black" d="M270.9,-220.79C263.62,-212.27 254.99,-202.14 247.1,-192.9"/>
<polygon fill="blue" stroke="black" points="249.57,-190.41 240.42,-185.07 244.25,-194.95 249.57,-190.41"/>
</g>
<!-- torchdiffeq__impl_rk_common&#45;&gt;torchdiffeq__impl_dopri5 -->
<g id="edge20" class="edge">
<title>torchdiffeq__impl_rk_common&#45;&gt;torchdiffeq__impl_dopri5</title><style>.edge>path:hover{stroke-width:8}</style>
<path fill="none" stroke="black" d="M210.43,-399.56C186.88,-385.94 155.74,-367.92 130.6,-353.38"/>
<polygon fill="#e61919" stroke="black" points="132.04,-350.17 121.63,-348.19 128.53,-356.23 132.04,-350.17"/>
</g>
<!-- torchdiffeq__impl_rk_common&#45;&gt;torchdiffeq__impl_fixed_adams -->
<g id="edge21" class="edge">
<title>torchdiffeq__impl_rk_common&#45;&gt;torchdiffeq__impl_fixed_adams</title><style>.edge>path:hover{stroke-width:8}</style>
<path fill="none" stroke="black" d="M230.69,-392.87C224.34,-381.42 216.93,-368.07 210.5,-356.46"/>
<polygon fill="#e61919" stroke="black" points="213.5,-354.65 205.59,-347.6 207.38,-358.05 213.5,-354.65"/>
</g>
<!-- torchdiffeq__impl_rk_common&#45;&gt;torchdiffeq__impl_fixed_grid -->
<g id="edge22" class="edge">
<title>torchdiffeq__impl_rk_common&#45;&gt;torchdiffeq__impl_fixed_grid</title><style>.edge>path:hover{stroke-width:8}</style>
<path fill="none" stroke="black" d="M258.32,-392.38C263.4,-381.24 269.27,-368.39 274.42,-357.11"/>
<polygon fill="#e61919" stroke="black" points="277.75,-358.23 278.72,-347.68 271.39,-355.32 277.75,-358.23"/>
</g>
<!-- torchdiffeq__impl_rk_common&#45;&gt;torchdiffeq__impl_tsit5 -->
<g id="edge23" class="edge">
<title>torchdiffeq__impl_rk_common&#45;&gt;torchdiffeq__impl_tsit5</title><style>.edge>path:hover{stroke-width:8}</style>
<path fill="none" stroke="black" d="M279.81,-398.64C300.92,-385.43 328.2,-368.36 350.65,-354.31"/>
<polygon fill="#e61919" stroke="black" points="352.69,-357.16 359.31,-348.89 348.98,-351.23 352.69,-357.16"/>
</g>
<!-- torchdiffeq__impl_solvers&#45;&gt;torchdiffeq__impl_adams -->
<g id="edge24" class="edge">
<title>torchdiffeq__impl_solvers&#45;&gt;torchdiffeq__impl_adams</title><style>.edge>path:hover{stroke-width:8}</style>
<path fill="none" stroke="black" d="M400.21,-398.87C421.17,-385.67 448.35,-368.55 470.74,-354.44"/>
<polygon fill="#f30c0c" stroke="black" points="472.78,-357.29 479.38,-349 469.05,-351.37 472.78,-357.29"/>
</g>
<!-- torchdiffeq__impl_solvers&#45;&gt;torchdiffeq__impl_dopri5 -->
<g id="edge25" class="edge">
<title>torchdiffeq__impl_solvers&#45;&gt;torchdiffeq__impl_dopri5</title><style>.edge>path:hover{stroke-width:8}</style>
<path fill="none" stroke="black" d="M329.46,-401.09C322.04,-397.76 314.22,-394.54 306.72,-391.98 237.73,-368.44 215.7,-379.53 146.72,-355.98 142.26,-354.46 137.69,-352.71 133.16,-350.84"/>
<polygon fill="#f30c0c" stroke="black" points="134.54,-347.62 123.97,-346.88 131.77,-354.05 134.54,-347.62"/>
</g>
<!-- torchdiffeq__impl_solvers&#45;&gt;torchdiffeq__impl_fixed_adams -->
<g id="edge26" class="edge">
<title>torchdiffeq__impl_solvers&#45;&gt;torchdiffeq__impl_fixed_adams</title><style>.edge>path:hover{stroke-width:8}</style>
<path fill="none" stroke="black" d="M329.28,-401.29C304.54,-388.78 271.49,-371.78 242.72,-355.98 240.76,-354.91 238.76,-353.8 236.75,-352.67"/>
<polygon fill="#f30c0c" stroke="black" points="238.32,-349.54 227.9,-347.64 234.86,-355.62 238.32,-349.54"/>
</g>
<!-- torchdiffeq__impl_solvers&#45;&gt;torchdiffeq__impl_fixed_grid -->
<g id="edge27" class="edge">
<title>torchdiffeq__impl_solvers&#45;&gt;torchdiffeq__impl_fixed_grid</title><style>.edge>path:hover{stroke-width:8}</style>
<path fill="none" stroke="black" d="M344.71,-394.35C334.3,-382.23 321.85,-367.74 311.25,-355.4"/>
<polygon fill="#f30c0c" stroke="black" points="313.77,-352.95 304.59,-347.64 308.46,-357.51 313.77,-352.95"/>
</g>
<!-- torchdiffeq__impl_solvers&#45;&gt;torchdiffeq__impl_tsit5 -->
<g id="edge28" class="edge">
<title>torchdiffeq__impl_solvers&#45;&gt;torchdiffeq__impl_tsit5</title><style>.edge>path:hover{stroke-width:8}</style>
<path fill="none" stroke="black" d="M374.66,-391.88C377,-383.59 379.6,-374.37 382.09,-365.59"/>
<polygon fill="#f30c0c" stroke="black" points="385.47,-366.49 384.82,-355.92 378.73,-364.59 385.47,-366.49"/>
</g>
<!-- torchdiffeq__impl_tsit5&#45;&gt;torchdiffeq__impl_odeint -->
<g id="edge29" class="edge">
<title>torchdiffeq__impl_tsit5&#45;&gt;torchdiffeq__impl_odeint</title><style>.edge>path:hover{stroke-width:8}</style>
<path fill="none" stroke="black" d="M363.75,-302.96C350.25,-292.22 334.13,-279.41 320.22,-268.35"/>
<polygon fill="#b03a3a" stroke="black" points="322.33,-265.55 312.32,-262.07 317.97,-271.03 322.33,-265.55"/>
</g>
</g>
</svg>
